<svg id="visual" viewBox="0 0 900 600" width="900" height="600" xmlns="http://www.w3.org/2000/svg" xmlns:xlink="http://www.w3.org/1999/xlink" version="1.1"><rect x="0" y="0" width="900" height="600" fill="#0f172a"></rect><path d="M0 423L37.5 434.3C75 445.7 150 468.3 225 460.8C300 453.3 375 415.7 450 423.5C525 431.3 600 484.7 675 500.5C750 516.3 825 494.7 862.5 483.8L900 473L900 601L862.5 601C825 601 750 601 675 601C600 601 525 601 450 601C375 601 300 601 225 601C150 601 75 601 37.5 601L0 601Z" fill="#2563eb" stroke-linecap="round" stroke-linejoin="miter"></path></svg>